<?xml version="1.0" encoding="UTF-8"?>
<svg width="16px" height="16px" viewBox="0 0 16 16" version="1.1" xmlns="http://www.w3.org/2000/svg" xmlns:xlink="http://www.w3.org/1999/xlink">
    <!-- Generator: Sketch 63 (92445) - https://sketch.com -->
    <title>告警管理@1x</title>
    <desc>Created with Sketch.</desc>
    <g id="告警管理" stroke="none" stroke-width="1" fill="none" fill-rule="evenodd">
        <g id="告警" fill="#FFFFFF" fill-rule="nonzero">
            <path d="M2.66666667,13.3333333 C2.3721148,13.3333333 2.13333333,13.5721148 2.13333333,13.8666667 C2.13333333,14.1612185 2.3721148,14.4 2.66666667,14.4 L13.3333333,14.4 C13.6278852,14.4 13.8666667,14.1612185 13.8666667,13.8666667 C13.8666667,13.5721148 13.6278852,13.3333333 13.3333333,13.3333333 L2.66666667,13.3333333 Z M2.66666667,12.2666667 L13.3333333,12.2666667 C14.2169889,12.2666667 14.9333333,12.9830111 14.9333333,13.8666667 C14.9333333,14.7503223 14.2169889,15.4666667 13.3333333,15.4666667 L2.66666667,15.4666667 C1.78301107,15.4666667 1.06666667,14.7503223 1.06666667,13.8666667 C1.06666667,12.9830111 1.78301107,12.2666667 2.66666667,12.2666667 Z" id="Shape"></path>
            <path d="M12.2666667,2.93333333 C12.2666667,3.37516113 12.6248389,3.73333333 13.0666667,3.73333333 C13.5084945,3.73333333 13.8666667,3.37516113 13.8666667,2.93333333 C13.8666667,2.49150553 13.5084945,2.13333333 13.0666667,2.13333333 C12.6248389,2.13333333 12.2666667,2.49150553 12.2666667,2.93333333 Z" id="Shape"></path>
            <path d="M2.13333333,2.93333333 C2.13333333,3.37516113 2.49150553,3.73333333 2.93333333,3.73333333 C3.37516113,3.73333333 3.73333333,3.37516113 3.73333333,2.93333333 C3.73333333,2.49150553 3.37516113,2.13333333 2.93333333,2.13333333 C2.49150553,2.13333333 2.13333333,2.49150553 2.13333333,2.93333333 Z" id="Shape"></path>
            <path d="M7.46666667,9.6 C7.46666667,9.30544813 7.70544813,9.06666667 8,9.06666667 C8.29455187,9.06666667 8.53333333,9.30544813 8.53333333,9.6 L8.53333333,12.2666667 C8.53333333,12.5612185 8.29455187,12.8 8,12.8 C7.70544813,12.8 7.46666667,12.5612185 7.46666667,12.2666667 L7.46666667,9.6 Z" id="Shape"></path>
            <path d="M8,10.1333333 C7.33310422,10.1333333 6.71686711,9.77754869 6.38341921,9.20000001 C6.04997132,8.62245133 6.04997132,7.910882 6.38341921,7.33333332 C6.71686711,6.75578464 7.33310422,6.4 8,6.4 C9.03093152,6.4 9.86666663,7.23573515 9.86666663,8.26666667 C9.86666663,9.29759818 9.03093152,10.1333333 8,10.1333333 L8,10.1333333 Z M8,9.06666667 C8.4418278,9.06666667 8.8,8.70849447 8.8,8.26666667 C8.8,7.82483887 8.4418278,7.46666667 8,7.46666667 C7.5581722,7.46666667 7.2,7.82483887 7.2,8.26666667 C7.2,8.70849447 7.5581722,9.06666667 8,9.06666667 Z M13.8666667,7.46666667 C13.5721148,7.46666667 13.3333333,7.2278852 13.3333333,6.93333333 C13.3333333,6.63878147 13.5721148,6.4 13.8666667,6.4 L15.4666667,6.4 C15.7612185,6.4 16,6.63878147 16,6.93333333 C16,7.2278852 15.7612185,7.46666667 15.4666667,7.46666667 L13.8666667,7.46666667 Z M0.533333333,7.46666667 C0.238781467,7.46666667 0,7.2278852 0,6.93333333 C0,6.63878147 0.238781467,6.4 0.533333333,6.4 L2.13333333,6.4 C2.4278852,6.4 2.66666667,6.63878147 2.66666667,6.93333333 C2.66666667,7.2278852 2.4278852,7.46666667 2.13333333,7.46666667 L0.533333333,7.46666667 Z M7.46666667,0.533333333 C7.46666667,0.238781467 7.70544813,0 8,0 C8.29455187,0 8.53333333,0.238781467 8.53333333,0.533333333 L8.53333333,2.13333333 C8.53333333,2.4278852 8.29455187,2.66666667 8,2.66666667 C7.70544813,2.66666667 7.46666667,2.4278852 7.46666667,2.13333333 L7.46666667,0.533333333 Z" id="Shape"></path>
            <path d="M4.00746667,12.8 L2.9408,12.8 L2.9408,8 C2.9408,5.20175727 5.20922393,2.93333333 8.00746667,2.93333333 C10.8057094,2.93333333 13.0741333,5.20175727 13.0741333,8 L13.0741333,12.8 L12.0074667,12.8 L12.0074667,8 C12.0074666,5.79086102 10.2166056,4.00000006 8.00746667,4.00000006 C5.79832769,4.00000006 4.0074667,5.79086102 4.00746667,8 L4.00746667,12.8 L4.00746667,12.8 Z" id="Shape"></path>
        </g>
    </g>
</svg>