<?xml version="1.0" encoding="UTF-8"?>
<svg width="16px" height="16px" viewBox="0 0 16 16" version="1.1" xmlns="http://www.w3.org/2000/svg" xmlns:xlink="http://www.w3.org/1999/xlink">
    <!-- Generator: Sketch 52.4 (67378) - http://www.bohemiancoding.com/sketch -->
    <title>xingzhuang-tadiao</title>
    <desc>Created with Sketch.</desc>
    <g id="Page-1" stroke="none" stroke-width="1" fill="none" fill-rule="evenodd">
        <g id="施工设备-设备监控-实时数据" transform="translate(-20.000000, -347.000000)" fill="#FFFFFF" fill-rule="nonzero">
            <g id="xingzhuang-tadiao" transform="translate(20.000000, 347.000000)">
                <path d="M15.9474968,4.98642643 L14.7135554,3.5153105 C14.6682049,3.46282697 14.6041701,3.43372961 14.5376045,3.43535856 L13.0957211,3.43535856 C13.069896,3.4095029 13.0406289,3.38794458 13.0088882,3.37139699 L4.62951185,0.0220252252 C4.55233109,-0.00838720666 4.46623068,0.00354366153 4.39871911,0.054006 L0.559790243,3.02698859 L0.233024268,3.02698859 C0.10620251,3.02698859 0.00223151464,3.13154115 0.00223151464,3.25946427 L0.00223151464,5.54609009 C0.00223151464,5.67401321 0.105059967,5.77733573 0.233024268,5.77733573 L2.67005858,5.77733573 C2.79802288,5.77733573 2.90085133,5.67401321 2.90085133,5.54609009 L2.90085133,5.3701958 L4.22391074,5.3701958 L4.22391074,15.3395892 L1.67490767,15.3395892 C1.5000993,15.3395892 1.36413724,15.4748925 1.36413724,15.6520168 L1.36413724,15.6839976 C1.36413724,15.8598919 1.5000993,15.9951952 1.67490767,15.9951952 L13.4144893,15.9951952 C13.5892976,15.9951952 13.7252597,15.8598919 13.7252597,15.6839976 L13.7252597,15.6520168 C13.7252597,15.4761225 13.5892976,15.3395892 13.4144893,15.3395892 L6.88374003,15.3395892 L6.88374003,5.3701958 L11.5270159,5.3701958 L12.0445858,8.20787508 L11.8617796,8.20787508 C11.8038063,8.2074981 11.7484706,8.23392526 11.709822,8.28044685 C11.6698332,8.32841802 11.6618354,8.38376937 11.6698332,8.44773094 L11.9965992,9.8388949 C12.0206236,9.93103285 12.0996822,9.99385408 12.1885456,9.99141861 L12.4353339,9.99141861 L12.4353339,11.1820877 L12.9129149,11.1820877 C13.0781991,11.2117581 13.2309868,11.2955051 13.3505071,11.4219435 C13.5104625,11.5818475 13.5904402,11.7983327 13.5812999,12.0295784 C13.5653043,12.4539387 13.2076898,12.8044973 12.7929484,12.8217177 C12.5705958,12.8326899 12.3531355,12.7492044 12.1874031,12.589242 C12.0278829,12.4371237 11.9353699,12.2196174 11.932617,11.9902174 C11.932617,11.8622943 11.8297886,11.7577417 11.7018243,11.7577417 C11.5750025,11.7577417 11.4710315,11.8622943 11.4710315,11.9902174 C11.4710315,12.342006 11.6149913,12.6778042 11.8697774,12.9250402 C12.1085679,13.1575159 12.4273361,13.285439 12.7609573,13.285439 L12.8089439,13.285439 C13.4784714,13.2608385 14.0200346,12.709785 14.0520257,12.0381886 C14.066706,11.6797791 13.9357441,11.3322418 13.6932686,11.0861454 C13.5258568,10.9103614 13.3161032,10.7885061 13.0877233,10.7343568 L13.0877233,9.98403843 L13.4144893,9.98403843 C13.5104625,9.98403843 13.5892976,9.91884685 13.6052932,9.82413454 L13.8520815,8.43174054 C13.8591599,8.37501414 13.8452043,8.31756855 13.8132351,8.27183663 C13.7753258,8.22437127 13.7193813,8.19810618 13.6612775,8.2004949 L13.5504513,8.2004949 L13.9960413,5.36158559 L15.7635481,5.36158559 C15.8527265,5.36091847 15.9348998,5.30943043 15.9794879,5.22628229 C16.0128265,5.14640054 16.0003666,5.05298162 15.9474968,4.98642643 Z M13.5595916,9.84504505 L12.7712402,9.84504505 L12.5701534,8.61501501 L13.7126918,8.61501501 L13.5607342,9.84504505 L13.5595916,9.84504505 Z M6.45071799,3.6948949 C6.44337201,3.67434852 6.43295138,3.65523533 6.41986946,3.63831351 L4.57238494,1.23483483 L11.4276151,3.6948949 L6.44957545,3.6948949 L6.45071799,3.6948949 Z M2.73289819,3.31727568 L1.14476987,3.31727568 L4.57238494,1.23483483 L4.57238494,3.6948949 L3.00367978,3.6948949 L3.00367978,3.5313009 C3.00367978,3.41321802 2.88257071,3.31727568 2.73175565,3.31727568 L2.73289819,3.31727568 Z" id="形状"></path>
            </g>
        </g>
    </g>
</svg>