<?xml version="1.0" encoding="UTF-8"?>
<svg width="16px" height="16px" viewBox="0 0 16 16" version="1.1" xmlns="http://www.w3.org/2000/svg" xmlns:xlink="http://www.w3.org/1999/xlink">
    <!-- Generator: Sketch 63 (92445) - https://sketch.com -->
    <title>在线监控@1x</title>
    <desc>Created with Sketch.</desc>
    <g id="在线监控" stroke="none" stroke-width="1" fill="none" fill-rule="evenodd">
        <path d="M13.8333329,14.9333333 L13.0788886,14.9333333 L11.8391108,11.7482667 C13.8120625,10.5671636 15.0006136,8.5561189 15.0000002,6.40000002 C15.0000002,4.70261448 14.2625017,3.07474943 12.9497471,1.87451661 C11.6369926,0.674283781 9.85651531,0 8.00000024,0 C6.14348469,0 4.36300742,0.674283781 3.05025286,1.87451661 C1.7374983,3.07474943 1.00000024,4.70261448 1.00000024,6.40000002 C0.999386357,8.5561189 2.18793752,10.5671636 4.16088916,11.7482667 L2.92111144,14.9333333 L2.16666707,14.9333333 C1.844501,14.9333333 1.58333381,15.1721148 1.58333381,15.4666667 C1.58333381,15.7612185 1.844501,16 2.16666707,16 L13.8333329,16 C14.155499,16 14.4166662,15.7612185 14.4166662,15.4666667 C14.4166662,15.1721148 14.155499,14.9333333 13.8333329,14.9333333 L13.8333329,14.9333333 Z M2.16666707,6.40000002 C2.16666707,3.45884445 4.78311132,1.06666667 8,1.06666667 C11.2168887,1.06666667 13.8333329,3.45884445 13.8333329,6.40000002 C13.8333329,8.1649778 12.8789997,9.72160002 11.429222,10.6929778 C11.1097432,10.9086702 10.7667354,11.0935936 10.4056665,11.2448 C9.65164834,11.5642294 8.8310233,11.7308787 8,11.7333333 C7.16848449,11.7308149 6.34736722,11.5641733 5.59277795,11.2448 C5.23224249,11.0933711 4.88954274,10.9087116 4.57000023,10.6936889 C3.12100034,9.7208889 2.16666707,8.1656889 2.16666707,6.40000002 Z M4.1593336,14.9333333 L5.19766686,12.2624 C6.98362306,12.9792629 9.01637694,12.9792629 10.8023331,12.2624 L11.8406664,14.9333333 L4.1593336,14.9333333 Z M8,10.3751111 C8.83222218,10.3751111 9.5819999,10.0764444 10.1489999,9.6 C10.8056023,9.05306368 11.1802031,8.27877838 11.1811109,7.46666667 C11.1811109,5.86037715 9.75687904,4.55822222 8,4.55822222 C6.24312096,4.55822222 4.8188891,5.86037715 4.8188891,7.46666667 C4.8188891,8.31359999 5.21944464,9.06880001 5.85100015,9.6 C6.43453968,10.0972648 7.20229926,10.3741839 8,10.3751111 Z M8,5.62488889 C9.11183648,5.62645521 10.0127311,6.45013038 10.0144443,7.46666667 C10.0127311,8.48320295 9.11183648,9.30687813 8,9.30844444 C6.88816352,9.30687813 5.98726885,8.48320295 5.98555569,7.46666667 C5.98726885,6.45013038 6.88816352,5.62645521 8,5.62488889 L8,5.62488889 Z M7.15222228,3.20000001 C7.15222228,2.92307947 7.31380779,2.66719434 7.57611113,2.52873407 C7.83841447,2.3902738 8.16158553,2.3902738 8.42388887,2.52873407 C8.68619221,2.66719434 8.84777772,2.92307947 8.84777772,3.20000001 C8.84777772,3.62808204 8.46821469,3.97511108 8,3.97511108 C7.53178531,3.97511108 7.15222228,3.62808204 7.15222228,3.20000001 L7.15222228,3.20000001 Z" id="形状" stroke="#FFFFFF" stroke-width="0.1" fill="#FFFFFF" fill-rule="nonzero"></path>
    </g>
</svg>