<?xml version="1.0" encoding="UTF-8"?>
<svg width="16px" height="16px" viewBox="0 0 16 16" version="1.1" xmlns="http://www.w3.org/2000/svg" xmlns:xlink="http://www.w3.org/1999/xlink">
    <!-- Generator: Sketch 63 (92445) - https://sketch.com -->
    <title>大屏管理@1x</title>
    <desc>Created with Sketch.</desc>
    <g id="大屏管理" stroke="none" stroke-width="1" fill="none" fill-rule="evenodd">
        <g id="大屏-(1)" fill="#FFFFFF" fill-rule="nonzero">
            <path d="M13.1085937,13.5019231 L10.4835937,13.5019231 C10.1700521,13.5019231 9.91484375,13.1900641 9.91484375,12.8019231 C9.91484375,12.4160256 10.1682292,12.1019231 10.4835937,12.1019231 L13.1085937,12.1019231 C13.5989583,12.1019231 13.9945312,11.6128205 13.9963542,11.0092949 L13.9963542,2.49262821 C13.9963542,1.88910256 13.5989583,1.40224359 13.1085937,1.4 L2.0234375,1.4 C1.53307292,1.4 1.1375,1.88910256 1.13567708,2.49262821 L1.13567708,11.0137821 C1.13567708,11.6173077 1.53307292,12.1041667 2.0234375,12.1064103 L4.32213542,12.1064103 C4.63567708,12.1064103 4.89088542,12.4182692 4.89088542,12.8064103 C4.89088542,13.1945513 4.6375,13.5064103 4.32213542,13.5064103 L2.0234375,13.5064103 C0.9078125,13.5019231 0.00364583333,12.3891026 0.00182291667,11.0160256 L0.00182291667,2.49262821 C0.00364583333,1.11955128 0.9078125,0.00673076923 2.0234375,0.00448717949 L13.1085937,0.00448717949 C14.2242187,0.00673076923 15.1283854,1.11955128 15.1302083,2.49262821 L15.1302083,11.0137821 C15.1283854,12.386859 14.2260417,13.5019231 13.1085937,13.5019231 L13.1085937,13.5019231 Z M10.2138021,15.3663462 L4.92005208,15.3663462 L7.56692708,11.1753205 L10.2138021,15.3663462 L10.2138021,15.3663462 Z" id="形状"></path>
            <path d="M6.45677083,9.52179487 C6.14869792,9.51955128 5.90078125,9.2099359 5.90078125,8.83076923 L5.90078125,4.68685897 C5.89348958,4.3099359 6.13411458,3.99583333 6.4421875,3.98461538 C6.7484375,3.97564103 7.00364583,4.27179487 7.01276042,4.65096154 L7.01276042,8.83076923 C7.01276042,9.2099359 6.76302083,9.51955128 6.45677083,9.52179487 L6.45677083,9.52179487 Z M4.23098958,9.52179487 C3.92291667,9.51955128 3.675,9.2099359 3.675,8.83076923 L3.675,7.44871795 C3.66770833,7.07179487 3.90833333,6.75769231 4.21640625,6.74647436 C4.52265625,6.7375 4.77786458,7.03365385 4.78698908,7.41282051 L4.78698908,8.82852564 C4.78880208,9.2099359 4.5390625,9.51955128 4.23098958,9.52179487 Z M8.67890625,9.52179487 C8.37083333,9.51955128 8.12291667,9.2099359 8.12291667,8.83076923 L8.12291667,6.07115385 C8.115625,5.69423077 8.35625,5.38012821 8.66432292,5.36891026 C8.97239583,5.3599359 9.22578125,5.65608974 9.23489583,6.03525641 L9.23489583,8.83301282 C9.23489583,9.2099359 8.98697917,9.51955128 8.67890625,9.52179487 L8.67890625,9.52179487 Z M10.9028646,9.52179487 C10.5947917,9.51955128 10.346875,9.2099359 10.346875,8.83076923 L10.346875,5.37564103 C10.3395833,4.99871795 10.5802083,4.68461538 10.8882813,4.67339744 C11.1945313,4.66442308 11.4497396,4.96057692 11.4588542,5.33974359 L11.4588542,8.82852564 C11.4588542,9.2099359 11.2109375,9.51955128 10.9028646,9.52179487 Z" id="形状"></path>
        </g>
    </g>
</svg>