<?xml version="1.0" encoding="UTF-8"?>
<svg width="16px" height="16px" viewBox="0 0 16 16" version="1.1" xmlns="http://www.w3.org/2000/svg" xmlns:xlink="http://www.w3.org/1999/xlink">
    <!-- Generator: Sketch 63 (92445) - https://sketch.com -->
    <title>系统设置@1x</title>
    <desc>Created with Sketch.</desc>
    <g id="系统设置" stroke="none" stroke-width="1" fill="none" fill-rule="evenodd">
        <g id="系统" fill="#FFFFFF" fill-rule="nonzero" stroke="#FFFFFF" stroke-width="0.1">
            <path d="M12.6345063,15.2616731 C12.9983903,15.6210237 13.4871072,15.8227957 14.1664093,15.8159331 C14.6213996,15.7822024 15.0484254,15.5858322 15.3705692,15.2594156 C15.7328342,14.8923456 15.9312259,14.3924424 15.9199882,13.8748203 C15.9237467,13.364571 15.7240508,12.8726734 15.3655422,12.5103444 L11.8589938,9.33609657 C11.6557331,9.38016585 11.495158,9.53494596 11.4417395,9.73587633 C11.390748,9.9276778 11.4452087,10.1323023 11.5845063,10.2726967 L14.5845063,13.2963188 C14.7206305,13.4594005 14.7849064,13.6654132 14.7763323,13.8682867 C14.7677589,14.0711447 14.6863445,14.2708897 14.5338452,14.4245898 C14.3814841,14.5781506 14.183496,14.6601905 13.9823909,14.6688242 C13.7813014,14.6774572 13.5771222,14.6126933 13.4123684,14.4727572 L9.97266574,11.4088264 C9.84463812,11.5123039 9.7138849,11.7521839 9.6154373,12.2188319 L12.6345063,15.2616731 Z M1.51481254,0.246388243 L4.30558534,2.32221657 L3.16518746,4.2940842 L0.374414664,2.21825587 L1.51481254,0.246388243 Z M1.53043501,1.81165354 L2.79041514,3.08155478 L3.14901725,2.72853427 L1.53043501,1.81165354 Z" id="Shape"></path>
            <path d="" id="Shape"></path>
            <path d="M3.25415592,4.0335999 L10.2545063,11.0890747 C10.3592217,11.1949814 10.5014522,11.2546728 10.6498765,11.2550392 C10.8035785,11.2442359 10.9427527,11.1721466 11.0386443,11.0553493 C11.1370934,10.9616162 11.1943261,10.8322985 11.2041663,10.6994018 C11.2140045,10.5665316 11.1764657,10.4301083 11.0895476,10.3177525 L4.03536817,3.25788584 C3.97607575,3.19763241 3.90510797,3.15047479 3.75788263,3.15047479 C3.64918493,3.15047479 3.49278352,3.167959 3.10918561,3.61335505 L3.09743915,3.62704604 C3.09717713,3.63340737 3.09707142,3.63969579 3.25415592,4.0335999 Z" id="Shape"></path>
            <path d="M12.3668167,-0.041808697 L12.6095937,-0.0365068668 C13.2709502,0.000299443573 13.9223025,0.219774981 14.4862472,0.617632845 L14.4862472,0.617632845 L13.3555104,2.57930866 L14.6974812,1.64154936 C15.8613327,2.31129322 16.0398324,2.9469227 16.05,3.59553075 C16.0514073,4.77222014 15.4879844,5.87688682 14.5378345,6.5606194 C13.596033,7.23834444 12.3895639,7.41959629 11.2934717,7.04958973 L11.2934717,7.04958973 L7.05676248,11.3296357 C7.3987622,12.4293308 7.20201526,13.6281855 6.52546435,14.5587486 C5.84281108,15.4977051 4.75461522,16.0494891 3.59988926,16.0425066 C2.86083139,16.0408697 2.13966931,15.810735 1.53404516,15.3825118 L1.53404516,15.3825118 L2.64753317,13.4185645 L1.30251883,14.3584506 C0.138667349,13.6887068 -0.0398323788,13.0530778 -0.05,12.4044094 C-0.05,11.4324629 0.335812752,10.5009266 1.02150562,9.81751334 C1.70734844,9.13395067 2.63608154,8.75545823 3.60030374,8.76637888 C4.07692176,8.76927428 4.54833479,8.86544697 4.98838178,9.04944 L4.98838178,9.04944 L9.05117974,4.96461449 C8.87847522,4.53632183 8.78973776,4.07824759 8.79000018,3.6158817 C8.7881908,2.93906267 8.9723922,2.28956725 9.30534642,1.72998279 C9.63834816,1.17031847 10.1201418,0.70059184 10.7134573,0.383379953 C11.3068535,0.0661249132 11.9630077,-0.072491161 12.6095937,-0.0365068668 Z M12.4004642,1.05523502 C11.7326463,1.05523718 11.0927869,1.32324677 10.6218242,1.79977201 C10.1507148,2.27644572 9.88739203,2.9226025 9.88999962,3.59539676 C9.8930723,4.02683059 10.0012925,4.45114402 10.1125534,5.43960432 L4.86651996,10.218547 C4.48273642,9.99074672 4.04520252,9.8718981 3.60026443,9.87425127 C2.92679551,9.86365522 2.27830676,10.1255134 1.79911275,10.6010504 C1.3197686,11.0767363 1.04991788,11.7264151 1.05,12.4044034 C1.04686015,12.5915674 1.06664447,12.7776537 1.10882373,12.9589944 L2.25731612,11.9765482 L3.99953062,12.4286746 L3.67572706,13.8498901 L2.77871094,14.8020587 C3.04280006,14.8924093 3.32029921,14.9372787 3.59953581,14.9346862 C4.29306462,14.9346841 4.92049933,14.6514959 5.37468307,14.1937152 C5.82901936,13.7357806 6.11,13.1031471 6.11,12.4044094 C6.10959076,12.0548489 6.0368488,11.7091158 6.00930283,10.8209437 L11.3506666,5.89460488 C11.6670995,6.04364733 12.0114674,6.1224197 12.3604771,6.12575031 C13.0407043,6.14717328 13.6994071,5.89011052 14.1871859,5.41338849 C14.6751185,4.93651616 14.950332,4.28062289 14.9500003,3.59561476 C14.9411999,3.4109617 14.9093939,3.22641152 14.8554183,3.04779901 L13.7227193,4.02354074 L12.0005011,3.57118621 L12.3242431,2.15024106 L13.221685,1.18799806 C12.9574773,1.0975568 12.6798403,1.05264125 12.4004642,1.05523502 Z" id="Shape"></path>
        </g>
    </g>
</svg>