<?xml version="1.0" encoding="UTF-8"?>
<svg width="16px" height="15px" viewBox="0 0 16 15" version="1.1" xmlns="http://www.w3.org/2000/svg" xmlns:xlink="http://www.w3.org/1999/xlink">
    <!-- Generator: Sketch 52.4 (67378) - http://www.bohemiancoding.com/sketch -->
    <title>cheliang-2</title>
    <desc>Created with Sketch.</desc>
    <g id="Page-1" stroke="none" stroke-width="1" fill="none" fill-rule="evenodd">
        <g id="车辆管理" transform="translate(-19.000000, -499.000000)" fill="#FFFFFF" fill-rule="nonzero">
            <g id="cheliang-2" transform="translate(19.000000, 499.000000)">
                <path d="M14.6447374,4.90722682 L15.7064939,4.40840223 C15.9562905,4.29082458 16.0636246,3.9932067 15.9465296,3.74389274 C15.828952,3.49409609 15.5318168,3.38676201 15.282038,3.50385698 L14.1104626,4.05425698 L13.8656715,1.20293184 C13.8656715,0.543803352 13.3294659,0.00759776536 12.6703374,0.00759776536 L3.27646034,0.00759776536 C2.61731397,0.00759776536 2.0806257,0.543803352 2.08259218,1.16049162 L1.83767598,4.03105251 L0.715512849,3.50383911 C0.467664804,3.38724469 0.169063687,3.49357765 0.051003352,3.74387486 C-0.0660916201,3.99318883 0.0412424581,4.2908067 0.291039106,4.40838436 L1.35115084,4.90644022 C0.776634637,4.95163352 0.322806704,5.43193743 0.323736313,5.98770056 L0.00611396648,10.8963933 C0.00611396648,11.5126168 0.507208939,12.013676 1.12289609,12.013676 L1.49663464,12.013676 L1.49663464,13.1943866 C1.49663464,13.9037855 2.0738324,14.4809654 2.78321341,14.4809654 L3.60824134,14.4809654 C4.31762235,14.4809654 4.89482011,13.9037855 4.89482011,13.1943866 L4.89482011,12.013676 L11.0651709,12.013676 L11.0651709,13.1943866 C11.0651709,13.9037855 11.6423687,14.4809654 12.3517497,14.4809654 L13.1772782,14.4809654 C13.8866592,14.4809654 14.4638391,13.9037855 14.4638391,13.1943866 L14.4638391,12.013676 L14.8629453,12.013676 C15.4791687,12.013676 15.9802279,11.5126168 15.9792447,10.8641966 L15.6635531,6.01993296 C15.6635531,5.43690726 15.2149453,4.9572648 14.6447374,4.90726257 L14.6447374,4.90722682 Z M3.27646034,1.00680223 L12.6703553,1.00680223 C12.7786547,1.00680223 12.8664849,1.0946324 12.8684335,1.24538994 L13.1809251,4.9026324 L2.76567598,4.9026324 L3.07986592,1.20294972 C3.07986592,1.09465028 3.16817877,1.00683799 3.27647821,1.00683799 L3.27646034,1.00680223 Z M3.89559777,13.1943687 C3.89559777,13.3529385 3.7667933,13.481743 3.60822346,13.481743 L2.78319553,13.481743 C2.6246257,13.481743 2.49582123,13.3529385 2.49582123,13.1943687 L2.49582123,12.0136581 L3.89559777,12.0136581 L3.89559777,13.1943687 Z M13.4646525,13.1943687 C13.4646525,13.3529385 13.335848,13.481743 13.1772782,13.481743 L12.3517497,13.481743 C12.1931799,13.481743 12.0643754,13.3529385 12.0643754,13.1943687 L12.0643754,12.0136581 L13.4646346,12.0136581 L13.4646346,13.1943687 L13.4646525,13.1943687 Z M14.8629274,11.0144715 L1.12291397,11.0144715 C1.05802011,11.0144715 1.00531844,10.9612872 1.00435307,10.9285899 L1.32195754,6.01991508 C1.32195754,5.95502123 1.37465922,5.90183687 1.43955307,5.90183687 L14.546324,5.90183687 C14.6112,5.90183687 14.6643665,5.95500335 14.6653497,6.05211173 L14.9810235,10.8963933 C14.9810235,10.9612872 14.9278212,11.0144715 14.8629274,11.0144715 Z" id="形状"></path>
                <path d="M4.00146592,6.93568715 C3.05203128,6.93568715 2.27918659,7.70851397 2.27918659,8.65796648 C2.27918659,9.60738324 3.05201341,10.3802279 4.00146592,10.3802279 C4.95090056,10.3802279 5.72374525,9.60740112 5.72374525,8.6579486 C5.72374525,7.70849609 4.95091844,6.93568715 4.00146592,6.93568715 Z M4.00146592,9.38100559 C3.60286034,9.38100559 3.27840894,9.05657207 3.27840894,8.6579486 C3.27840894,8.25932514 3.60286034,7.93489162 4.00146592,7.93489162 C4.40007151,7.93489162 4.72452291,8.25932514 4.72452291,8.6579486 C4.72452291,9.05657207 4.40007151,9.38100559 4.00146592,9.38100559 Z M11.8311687,6.93568715 C10.8812335,6.93568715 10.1084246,7.70851397 10.1084246,8.65796648 C10.1084246,9.60738324 10.8812514,10.3802279 11.8311687,10.3802279 C12.7806034,10.3802279 13.553448,9.60740112 13.553448,8.6579486 C13.553448,7.70849609 12.7806034,6.93568715 11.8311687,6.93568715 Z M11.8311687,9.38100559 C11.4320626,9.38100559 11.1076291,9.05657207 11.1076291,8.6579486 C11.1076291,8.25932514 11.4320626,7.93489162 11.8311687,7.93489162 C12.2297743,7.93489162 12.5542436,8.25932514 12.5542436,8.6579486 C12.5542436,9.05657207 12.2297743,9.38100559 11.8311687,9.38100559 Z" id="形状"></path>
            </g>
        </g>
    </g>
</svg>